<svg width="27" height="28" viewBox="0 0 27 28" fill="none" xmlns="http://www.w3.org/2000/svg">
<ellipse cx="13.5" cy="14" rx="13.5" ry="14" fill="black"/>
<path d="M12.625 15.2109C12.5677 16.5078 12.2031 17.4896 11.5312 18.1562C10.8594 18.8229 9.91146 19.1562 8.6875 19.1562C7.40104 19.1562 6.41406 18.7344 5.72656 17.8906C5.04427 17.0417 4.70312 15.8333 4.70312 14.2656V12.3516C4.70312 10.7891 5.05729 9.58594 5.76562 8.74219C6.47396 7.89323 7.45833 7.46875 8.71875 7.46875C9.95833 7.46875 10.8984 7.8151 11.5391 8.50781C12.1849 9.20052 12.5521 10.1953 12.6406 11.4922H10.3359C10.3151 10.6901 10.1901 10.138 9.96094 9.83594C9.73698 9.52865 9.32292 9.375 8.71875 9.375C8.10417 9.375 7.66927 9.59115 7.41406 10.0234C7.15885 10.4505 7.02344 11.1562 7.00781 12.1406V14.2891C7.00781 15.4193 7.13281 16.1953 7.38281 16.6172C7.63802 17.0391 8.07292 17.25 8.6875 17.25C9.29167 17.25 9.70833 17.1042 9.9375 16.8125C10.1667 16.5156 10.2969 15.9818 10.3281 15.2109H12.625ZM17.7422 15.875L19.6562 7.625H22.2188L18.9375 19H16.5469L13.2891 7.625H15.8359L17.7422 15.875Z" fill="white"/>
</svg>
